<svg width="49" height="49" fill="none" xmlns="http://www.w3.org/2000/svg"><circle cx="24.5" cy="24.5" r="23.5" stroke="#323232" stroke-width="2"/><path d="M32 19.7a9 9 0 00.4-7.1l-.2-.4a.8.8 0 00-1.2.2c-1 1.7-3.1 4.5-4.7 4.6a13 13 0 00-2.3-.2c-.7 0-1.4 0-2.1.2-1.7-.1-3.8-2.9-4.8-4.6l-.3-.3a.8.8 0 00-1 0l-.2.5a9 9 0 00.3 7.1c-1.3.2-3 .6-3.7 1.7a1.6 1.6 0 000 1.6l.8.8 1 .2c.7 0 1.3-.2 2-.4v1.2a25.8 25.8 0 001.8 5 11 11 0 00-.6 1.8 3.2 3.2 0 00.9 2.5c1.1 1.3 3.1 1.9 6 1.9 2.7 0 4.7-.6 5.9-1.9a3.3 3.3 0 00.8-2.5 11 11 0 00-.5-1.9l.3-1c.6-1.2 1-2.5 1.4-3.9l.1-1.2 1.8.4c.4 0 .8 0 1.1-.3.3-.1.6-.4.8-.7a1.6 1.6 0 000-1.6c-.6-1-2.4-1.5-3.7-1.7zm-.7-5a7 7 0 01-.8 4.6l-.6-.6c-.4-.4-1-.8-1.5-1a13 13 0 003-3zm-14.6 0c.8 1.2 1.8 2.2 3 3l-1.6 1a8 8 0 00-.6.6 7 7 0 01-.8-4.6zm-3 7.6c-.1-.1-.1-.2 0-.2.1-.3 1-.7 2.8-1l-.3.7c-1 .5-2.3.9-2.6.5zm16.8 2.3a25 25 0 01-1.8 5v.5c.3.5.5 1.1.6 1.7a1.8 1.8 0 01-.5 1.3c-.6.7-1.8 1.4-4.8 1.4-2.9 0-4.2-.8-4.7-1.4-.4-.3-.6-.8-.5-1.3.1-.6.3-1.2.6-1.7v-.5l-.5-1.4c-.6-1.2-1-2.4-1.3-3.7a5.3 5.3 0 011.6-4.8c1.2-1.1 3.9-1.4 4.8-1.4 1 0 3.6.3 4.8 1.4a5.3 5.3 0 011.7 4.8zm3.9-2.3c-.2.4-1.6 0-2.6-.4l-.2-.7c1.7.2 2.6.6 2.8 1v.1z" fill="#323232"/></svg>