<svg width="61" height="61" fill="none" xmlns="http://www.w3.org/2000/svg"><circle cx="30.5" cy="30.5" r="30.5" fill="#fff"/><path d="M21 17.8c-1 2.6-1.7 5.2-2.4 7.9-.6-2.8-.9-5.7-1-8.5 0-.4-1.8-.1-1.8.5.1 4 .7 8.1 1.7 12.1L14 43.2c0 .4 1.7.1 1.8-.3 1-3.2 1.7-6.4 2.5-9.6.8 3.1 1.6 6.3 2.2 9.4.1.5 2 0 1.9-.5l-3-12.9c1-4 2-8 3.4-11.8.1-.4-1.7-.2-1.9.3zM34.8 18.3c0-1-1.8-.8-1.9.1v.5c-1.2 4.3-2.5 8.5-4 12.7l-1.6 5.7-.1-19.3c0-1-2-.8-2 .1a683.3 683.3 0 00.3 24.6v.5c.2.8 2 .4 2-.3 1.6-4.1 2.4-8.4 3.8-12.5l1.5-4.6c-.1 5.9 0 11.7.2 17.5 0 1 1.5.8 1.8.1v-.1a.5.5 0 000-.5c-.2-8.3-.3-16.4 0-24.5zM47.3 17.2c-3 .3-6 .3-9.1 0-.5 0-2.2.9-1.2 1H40l-.1.3c.3 8.2-1 16.8.2 25 0 .3 1.9 0 1.8-.6-1.1-8 .1-16.5-.1-24.6 1.7 0 3.4 0 5.1-.3.8 0 1.6-1 .3-.8z" fill="#231F20"/></svg>